<svg xmlns="http://www.w3.org/2000/svg" xmlns:xlink="http://www.w3.org/1999/xlink" width="189" zoomAndPan="magnify" viewBox="0 0 141.75 141.750002" height="189" preserveAspectRatio="xMidYMid meet" version="1.0"><defs><clipPath id="2dccb25f7d"><path d="M 0 27 L 141.5 27 L 141.5 115 L 0 115 Z M 0 27 " clip-rule="nonzero"/></clipPath><clipPath id="4a91f009fe"><path d="M 0 0.59375 L 87 0.59375 L 87 86.703125 L 0 86.703125 Z M 0 0.59375 " clip-rule="nonzero"/></clipPath><clipPath id="1d2ed9a093"><path d="M 55 0.59375 L 141.5 0.59375 L 141.5 86.703125 L 55 86.703125 Z M 55 0.59375 " clip-rule="nonzero"/></clipPath><clipPath id="4e4b5f3f6d"><rect x="0" width="142" y="0" height="88"/></clipPath></defs><g clip-path="url(#2dccb25f7d)"><g transform="matrix(1, 0, 0, 1, 0, 27)"><g clip-path="url(#4e4b5f3f6d)"><g clip-path="url(#4a91f009fe)"><path fill="#5fb8aa" d="M 86.210938 43.660156 C 86.210938 45.070312 86.144531 46.472656 86.003906 47.875 C 85.867188 49.277344 85.660156 50.667969 85.382812 52.050781 C 85.109375 53.429688 84.765625 54.796875 84.355469 56.144531 C 83.945312 57.492188 83.472656 58.816406 82.929688 60.117188 C 82.390625 61.417969 81.789062 62.6875 81.121094 63.929688 C 80.457031 65.171875 79.734375 66.378906 78.949219 67.550781 C 78.164062 68.722656 77.324219 69.851562 76.429688 70.941406 C 75.53125 72.027344 74.585938 73.070312 73.585938 74.066406 C 72.589844 75.0625 71.542969 76.007812 70.453125 76.902344 C 69.363281 77.792969 68.230469 78.632812 67.054688 79.414062 C 65.882812 80.195312 64.671875 80.917969 63.425781 81.582031 C 62.179688 82.246094 60.90625 82.847656 59.601562 83.386719 C 58.296875 83.925781 56.96875 84.402344 55.621094 84.808594 C 54.269531 85.21875 52.902344 85.558594 51.515625 85.835938 C 50.132812 86.109375 48.738281 86.316406 47.332031 86.453125 C 45.925781 86.59375 44.519531 86.660156 43.105469 86.660156 C 41.695312 86.660156 40.285156 86.59375 38.882812 86.453125 C 37.476562 86.316406 36.082031 86.109375 34.695312 85.835938 C 33.3125 85.558594 31.945312 85.21875 30.59375 84.808594 C 29.242188 84.402344 27.914062 83.925781 26.609375 83.386719 C 25.304688 82.847656 24.03125 82.246094 22.785156 81.582031 C 21.542969 80.917969 20.332031 80.195312 19.15625 79.414062 C 17.984375 78.632812 16.851562 77.792969 15.761719 76.902344 C 14.667969 76.007812 13.625 75.0625 12.625 74.066406 C 11.628906 73.070312 10.679688 72.027344 9.785156 70.941406 C 8.890625 69.851562 8.050781 68.722656 7.265625 67.550781 C 6.480469 66.378906 5.753906 65.171875 5.089844 63.929688 C 4.425781 62.6875 3.820312 61.417969 3.28125 60.117188 C 2.742188 58.816406 2.265625 57.492188 1.855469 56.144531 C 1.445312 54.796875 1.105469 53.429688 0.828125 52.050781 C 0.554688 50.667969 0.347656 49.277344 0.207031 47.875 C 0.0703125 46.472656 0 45.070312 0 43.660156 C 0 42.253906 0.0703125 40.847656 0.207031 39.445312 C 0.347656 38.042969 0.554688 36.652344 0.828125 35.273438 C 1.105469 33.890625 1.445312 32.527344 1.855469 31.179688 C 2.265625 29.832031 2.742188 28.507812 3.28125 27.207031 C 3.820312 25.90625 4.425781 24.632812 5.089844 23.390625 C 5.753906 22.148438 6.480469 20.941406 7.265625 19.773438 C 8.050781 18.601562 8.890625 17.472656 9.785156 16.382812 C 10.679688 15.292969 11.628906 14.25 12.625 13.253906 C 13.625 12.261719 14.667969 11.316406 15.761719 10.421875 C 16.851562 9.527344 17.984375 8.691406 19.15625 7.90625 C 20.332031 7.125 21.542969 6.402344 22.785156 5.738281 C 24.03125 5.074219 25.304688 4.472656 26.609375 3.933594 C 27.914062 3.394531 29.242188 2.921875 30.59375 2.511719 C 31.945312 2.105469 33.3125 1.761719 34.695312 1.488281 C 36.082031 1.210938 37.476562 1.007812 38.882812 0.867188 C 40.285156 0.730469 41.695312 0.660156 43.105469 0.660156 C 44.519531 0.660156 45.925781 0.730469 47.332031 0.867188 C 48.738281 1.007812 50.132812 1.210938 51.515625 1.488281 C 52.902344 1.761719 54.269531 2.105469 55.621094 2.511719 C 56.96875 2.921875 58.296875 3.394531 59.601562 3.933594 C 60.90625 4.472656 62.179688 5.074219 63.425781 5.738281 C 64.671875 6.402344 65.882812 7.125 67.054688 7.90625 C 68.230469 8.691406 69.363281 9.527344 70.453125 10.421875 C 71.542969 11.316406 72.589844 12.261719 73.585938 13.253906 C 74.585938 14.25 75.53125 15.292969 76.429688 16.382812 C 77.324219 17.472656 78.164062 18.601562 78.949219 19.773438 C 79.734375 20.941406 80.457031 22.148438 81.121094 23.390625 C 81.789062 24.632812 82.390625 25.90625 82.929688 27.207031 C 83.472656 28.507812 83.945312 29.832031 84.355469 31.179688 C 84.765625 32.527344 85.109375 33.890625 85.382812 35.273438 C 85.660156 36.652344 85.867188 38.042969 86.003906 39.445312 C 86.144531 40.847656 86.210938 42.253906 86.210938 43.660156 Z M 86.210938 43.660156 " fill-opacity="1" fill-rule="nonzero"/></g><g clip-path="url(#1d2ed9a093)"><path fill="#e78754" d="M 141.519531 43.660156 C 141.519531 45.070312 141.449219 46.472656 141.308594 47.875 C 141.171875 49.277344 140.964844 50.667969 140.691406 52.050781 C 140.414062 53.429688 140.070312 54.796875 139.660156 56.144531 C 139.253906 57.492188 138.777344 58.816406 138.238281 60.117188 C 137.695312 61.417969 137.09375 62.6875 136.429688 63.929688 C 135.761719 65.171875 135.039062 66.378906 134.253906 67.550781 C 133.46875 68.722656 132.628906 69.851562 131.734375 70.941406 C 130.835938 72.027344 129.890625 73.070312 128.890625 74.066406 C 127.894531 75.0625 126.847656 76.007812 125.757812 76.902344 C 124.667969 77.792969 123.535156 78.632812 122.359375 79.414062 C 121.1875 80.195312 119.976562 80.917969 118.730469 81.582031 C 117.488281 82.246094 116.210938 82.847656 114.90625 83.386719 C 113.601562 83.925781 112.277344 84.402344 110.925781 84.808594 C 109.574219 85.21875 108.207031 85.558594 106.820312 85.835938 C 105.4375 86.109375 104.042969 86.316406 102.636719 86.453125 C 101.230469 86.59375 99.824219 86.660156 98.410156 86.660156 C 97 86.660156 95.589844 86.59375 94.1875 86.453125 C 92.78125 86.316406 91.386719 86.109375 90.003906 85.835938 C 88.617188 85.558594 87.25 85.21875 85.898438 84.808594 C 84.546875 84.402344 83.21875 83.925781 81.914062 83.386719 C 80.609375 82.847656 79.335938 82.246094 78.089844 81.582031 C 76.847656 80.917969 75.636719 80.195312 74.464844 79.414062 C 73.289062 78.632812 72.15625 77.792969 71.066406 76.902344 C 69.972656 76.007812 68.929688 75.0625 67.929688 74.066406 C 66.933594 73.070312 65.984375 72.027344 65.089844 70.941406 C 64.195312 69.851562 63.355469 68.722656 62.570312 67.550781 C 61.785156 66.378906 61.0625 65.171875 60.394531 63.929688 C 59.730469 62.6875 59.125 61.417969 58.585938 60.117188 C 58.046875 58.816406 57.570312 57.492188 57.160156 56.144531 C 56.75 54.796875 56.410156 53.429688 56.132812 52.050781 C 55.859375 50.667969 55.652344 49.277344 55.511719 47.875 C 55.375 46.472656 55.304688 45.070312 55.304688 43.660156 C 55.304688 42.253906 55.375 40.847656 55.511719 39.445312 C 55.652344 38.042969 55.859375 36.652344 56.132812 35.273438 C 56.410156 33.890625 56.75 32.527344 57.160156 31.179688 C 57.570312 29.832031 58.046875 28.507812 58.585938 27.207031 C 59.125 25.90625 59.730469 24.632812 60.394531 23.390625 C 61.0625 22.148438 61.785156 20.941406 62.570312 19.773438 C 63.355469 18.601562 64.195312 17.472656 65.089844 16.382812 C 65.984375 15.292969 66.933594 14.25 67.929688 13.253906 C 68.929688 12.261719 69.972656 11.316406 71.066406 10.421875 C 72.15625 9.527344 73.289062 8.691406 74.464844 7.90625 C 75.636719 7.125 76.847656 6.402344 78.089844 5.738281 C 79.335938 5.074219 80.609375 4.472656 81.914062 3.933594 C 83.21875 3.394531 84.546875 2.921875 85.898438 2.511719 C 87.25 2.105469 88.617188 1.761719 90.003906 1.488281 C 91.386719 1.210938 92.78125 1.007812 94.1875 0.867188 C 95.589844 0.730469 97 0.660156 98.410156 0.660156 C 99.824219 0.660156 101.230469 0.730469 102.636719 0.867188 C 104.042969 1.007812 105.4375 1.210938 106.820312 1.488281 C 108.207031 1.761719 109.574219 2.105469 110.925781 2.511719 C 112.277344 2.921875 113.601562 3.394531 114.90625 3.933594 C 116.210938 4.472656 117.488281 5.074219 118.730469 5.738281 C 119.976562 6.402344 121.1875 7.125 122.359375 7.90625 C 123.535156 8.691406 124.667969 9.527344 125.757812 10.421875 C 126.847656 11.316406 127.894531 12.261719 128.890625 13.253906 C 129.890625 14.25 130.835938 15.292969 131.734375 16.382812 C 132.628906 17.472656 133.46875 18.601562 134.253906 19.773438 C 135.039062 20.941406 135.761719 22.148438 136.429688 23.390625 C 137.09375 24.632812 137.695312 25.90625 138.238281 27.207031 C 138.777344 28.507812 139.253906 29.832031 139.660156 31.179688 C 140.070312 32.527344 140.414062 33.890625 140.691406 35.273438 C 140.964844 36.652344 141.171875 38.042969 141.3125 39.445312 C 141.449219 40.847656 141.519531 42.253906 141.519531 43.660156 Z M 141.519531 43.660156 " fill-opacity="1" fill-rule="nonzero"/></g><path fill="#897f56" d="M 86.183594 43.660156 C 86.183594 56.902344 80.183594 68.734375 70.757812 76.636719 C 61.332031 68.761719 55.332031 56.902344 55.332031 43.660156 C 55.332031 30.417969 61.332031 18.589844 70.757812 10.710938 C 80.183594 18.589844 86.183594 30.417969 86.183594 43.660156 Z M 86.183594 43.660156 " fill-opacity="1" fill-rule="nonzero"/><path fill="#f1f2f2" d="M 98.410156 2.808594 C 87.769531 2.808594 78.03125 6.902344 70.757812 13.5625 C 63.457031 6.871094 53.75 2.808594 43.105469 2.808594 C 20.519531 2.808594 2.152344 21.128906 2.152344 43.660156 C 2.152344 66.191406 20.519531 84.488281 43.078125 84.488281 C 53.71875 84.488281 63.457031 80.394531 70.730469 73.730469 C 78.03125 80.421875 87.742188 84.488281 98.382812 84.488281 C 120.96875 84.488281 139.308594 66.164062 139.308594 43.660156 C 139.308594 21.160156 120.996094 2.808594 98.410156 2.808594 Z M 43.105469 84.261719 C 20.660156 84.261719 2.378906 66.050781 2.378906 43.632812 C 2.378906 21.214844 20.632812 3.03125 43.105469 3.03125 C 53.691406 3.03125 63.371094 7.097656 70.617188 13.734375 C 62.550781 21.1875 57.511719 31.859375 57.511719 43.660156 C 57.511719 55.460938 62.578125 66.136719 70.617188 73.589844 C 63.34375 80.222656 53.691406 84.261719 43.105469 84.261719 Z M 70.757812 13.875 C 78.796875 21.300781 83.808594 31.914062 83.808594 43.660156 C 83.808594 55.40625 78.769531 66.023438 70.757812 73.449219 C 62.722656 66.023438 57.710938 55.40625 57.710938 43.660156 C 57.710938 31.914062 62.722656 21.300781 70.757812 13.875 Z M 98.410156 84.261719 C 87.824219 84.261719 78.144531 80.195312 70.902344 73.5625 C 78.96875 66.105469 84.003906 55.433594 84.003906 43.632812 C 84.003906 31.832031 78.9375 21.160156 70.902344 13.707031 C 78.144531 7.070312 87.824219 3.003906 98.410156 3.003906 C 120.855469 3.003906 139.140625 21.214844 139.140625 43.632812 C 139.140625 66.050781 120.886719 84.261719 98.410156 84.261719 Z M 98.410156 84.261719 " fill-opacity="0.8" fill-rule="nonzero"/></g></g></g></svg>